<?xml version="1.0" encoding="UTF-8" standalone="no"?>
<!DOCTYPE svg PUBLIC "-//W3C//DTD SVG 1.1//EN"
 "http://www.w3.org/Graphics/SVG/1.1/DTD/svg11.dtd">
<!-- Generated by graphviz version 2.47.0 (20210316.0004)
 -->
<!-- Title: dependencies Pages: 1 -->
<svg width="504pt" height="284pt"
 viewBox="0.00 0.00 504.00 284.00" xmlns="http://www.w3.org/2000/svg" xmlns:xlink="http://www.w3.org/1999/xlink">
<g id="graph0" class="graph" transform="scale(1 1) rotate(0) translate(4 280)">
<title>dependencies</title>
<polygon fill="white" stroke="transparent" points="-4,4 -4,-280 500,-280 500,4 -4,4"/>
<text text-anchor="start" x="227.01" y="-42.4" font-family="Times-12" font-weight="bold" font-size="14.00">Legend</text>
<polygon fill="#ffffb3" stroke="transparent" points="14,-10 14,-30 34,-30 34,-10 14,-10"/>
<text text-anchor="start" x="37.63" y="-15.4" font-family="Times-12" font-size="14.00"> &#160;Declarations</text>
<polygon fill="#8dd3c7" stroke="transparent" points="127,-10 127,-30 147,-30 147,-10 127,-10"/>
<text text-anchor="start" x="150.73" y="-15.4" font-family="Times-12" font-size="14.00"> &#160;Module</text>
<polygon fill="#80b1d3" stroke="transparent" points="213,-10 213,-30 233,-30 233,-10 213,-10"/>
<text text-anchor="start" x="236.78" y="-15.4" font-family="Times-12" font-size="14.00"> &#160;Bootstrap</text>
<polygon fill="#fdb462" stroke="transparent" points="310,-10 310,-30 330,-30 330,-10 310,-10"/>
<text text-anchor="start" x="333.67" y="-15.4" font-family="Times-12" font-size="14.00"> &#160;Providers</text>
<polygon fill="#fb8072" stroke="transparent" points="406,-10 406,-30 426,-30 426,-10 406,-10"/>
<text text-anchor="start" x="429.73" y="-15.4" font-family="Times-12" font-size="14.00"> &#160;Exports</text>
<g id="clust1" class="cluster">
<title>cluster_ActivitiesModule</title>
<polygon fill="none" stroke="black" stroke-dasharray="1,5" points="71,-70 71,-268 425,-268 425,-70 71,-70"/>
</g>
<g id="clust7" class="cluster">
<title>cluster_ActivitiesModule_providers</title>
<polygon fill="none" stroke="black" points="239,-78 239,-130 417,-130 417,-78 239,-78"/>
</g>
<g id="clust2" class="cluster">
<title>cluster_ActivitiesModule_declarations</title>
<polygon fill="none" stroke="black" points="79,-78 79,-130 231,-130 231,-78 79,-78"/>
</g>
<g id="clust5" class="cluster">
<title>cluster_ActivitiesModule_exports</title>
<polygon fill="none" stroke="black" points="164,-208 164,-260 320,-260 320,-208 164,-208"/>
</g>
<!-- ActivitiesComponent -->
<g id="node1" class="node">
<title>ActivitiesComponent</title>
<polygon fill="#ffffb3" stroke="black" points="222.77,-122 87.23,-122 87.23,-86 222.77,-86 222.77,-122"/>
<text text-anchor="middle" x="155" y="-99.8" font-family="Times,serif" font-size="14.00">ActivitiesComponent</text>
</g>
<!-- ActivitiesModule -->
<g id="node2" class="node">
<title>ActivitiesModule</title>
<polygon fill="#8dd3c7" stroke="black" points="298.98,-187 295.98,-191 274.98,-191 271.98,-187 185.02,-187 185.02,-151 298.98,-151 298.98,-187"/>
<text text-anchor="middle" x="242" y="-164.8" font-family="Times,serif" font-size="14.00">ActivitiesModule</text>
</g>
<!-- ActivitiesComponent&#45;&gt;ActivitiesModule -->
<g id="edge1" class="edge">
<title>ActivitiesComponent&#45;&gt;ActivitiesModule</title>
<path fill="none" stroke="black" d="M203.95,-122.11C203.95,-122.11 203.95,-140.99 203.95,-140.99"/>
<polygon fill="black" stroke="black" points="200.45,-140.99 203.95,-150.99 207.45,-140.99 200.45,-140.99"/>
</g>
<!-- ActivitiesComponent  -->
<g id="node3" class="node">
<title>ActivitiesComponent </title>
<polygon fill="#fb8072" stroke="black" points="311.77,-252 172.23,-252 172.23,-216 311.77,-216 311.77,-252"/>
<text text-anchor="middle" x="242" y="-229.8" font-family="Times,serif" font-size="14.00">ActivitiesComponent </text>
</g>
<!-- ActivitiesModule&#45;&gt;ActivitiesComponent  -->
<g id="edge2" class="edge">
<title>ActivitiesModule&#45;&gt;ActivitiesComponent </title>
<path fill="none" stroke="black" stroke-dasharray="5,2" d="M242,-187.11C242,-187.11 242,-205.99 242,-205.99"/>
<polygon fill="black" stroke="black" points="238.5,-205.99 242,-215.99 245.5,-205.99 238.5,-205.99"/>
</g>
<!-- GlobalApiService -->
<g id="node4" class="node">
<title>GlobalApiService</title>
<ellipse fill="#fdb462" stroke="black" cx="328" cy="-104" rx="80.52" ry="18"/>
<text text-anchor="middle" x="328" y="-99.8" font-family="Times,serif" font-size="14.00">GlobalApiService</text>
</g>
<!-- GlobalApiService&#45;&gt;ActivitiesModule -->
<g id="edge3" class="edge">
<title>GlobalApiService&#45;&gt;ActivitiesModule</title>
<path fill="none" stroke="black" d="M273.12,-117.47C273.12,-117.47 273.12,-140.86 273.12,-140.86"/>
<polygon fill="black" stroke="black" points="269.62,-140.86 273.12,-150.86 276.62,-140.86 269.62,-140.86"/>
</g>
</g>
</svg>
