<svg width="142" height="142" viewBox="0 0 142 142" fill="none" xmlns="http://www.w3.org/2000/svg">
<path d="M49.886 130.622C50.4256 131.207 50.7126 131.981 50.6845 132.777C50.6564 133.572 50.3156 134.324 49.736 134.87L43.22 140.963C42.6382 141.504 41.8655 141.791 41.0718 141.762C40.2782 141.734 39.5283 141.391 38.987 140.81L1.04 99.914C0.500746 99.3286 0.214323 98.554 0.242972 97.7585C0.271621 96.9631 0.613026 96.2111 1.193 95.666L7.718 89.582C8.00592 89.314 8.34383 89.1053 8.71243 88.9679C9.08103 88.8305 9.47309 88.7671 9.8662 88.7813C10.2593 88.7955 10.6458 88.8871 11.0035 89.0507C11.3612 89.2144 11.6832 89.4469 11.951 89.735L49.886 130.622ZM98.306 53.672C98.8453 54.2574 99.1317 55.032 99.103 55.8275C99.0744 56.6229 98.733 57.3749 98.153 57.92L57.143 96.23C56.5612 96.7706 55.7885 97.0581 54.9948 97.0294C54.2012 97.0007 53.4513 96.6582 52.91 96.077L43.121 85.514C42.5817 84.9286 42.2953 84.154 42.324 83.3585C42.3526 82.5631 42.694 81.8111 43.274 81.266L84.275 42.956C84.5627 42.688 84.9003 42.4794 85.2687 42.3421C85.637 42.2048 86.0289 42.1414 86.4217 42.1556C86.8146 42.1698 87.2008 42.2613 87.5583 42.4249C87.9157 42.5885 88.2374 42.821 88.505 43.109L98.306 53.672ZM63.839 117.581C64.961 118.79 64.892 120.701 63.686 121.829L57.161 127.919C56.8731 128.187 56.5352 128.396 56.1666 128.533C55.798 128.67 55.4059 128.734 55.0128 128.72C54.6197 128.705 54.2332 128.614 53.8755 128.45C53.5178 128.287 53.1958 128.054 52.928 127.766L15.002 86.87C14.4624 86.285 14.1754 85.5106 14.2035 84.7151C14.2316 83.9197 14.5724 83.1675 15.152 82.622L21.665 76.535C22.2468 75.9944 23.0195 75.7069 23.8132 75.7356C24.6068 75.7643 25.3567 76.1068 25.898 76.688L63.839 117.581ZM127.028 55.139C127.567 55.7248 127.853 56.4996 127.824 57.2951C127.794 58.0905 127.452 58.8423 126.872 59.387L120.35 65.477C119.768 66.0181 118.995 66.3063 118.201 66.2781C117.407 66.25 116.656 65.9079 116.114 65.327L78.182 24.44C77.6416 23.8553 77.3542 23.0808 77.3823 22.2851C77.4104 21.4894 77.7517 20.7371 78.332 20.192L84.872 14.087C85.1597 13.819 85.4973 13.6104 85.8657 13.4731C86.234 13.3358 86.6259 13.2724 87.0187 13.2866C87.4116 13.3008 87.7978 13.3923 88.1553 13.5559C88.5127 13.7195 88.8344 13.952 89.102 14.24L127.028 55.139ZM140.96 42.119C141.499 42.7053 141.785 43.4802 141.756 44.2759C141.727 45.0716 141.386 45.8239 140.807 46.37L134.297 52.457C134.01 52.7251 133.672 52.934 133.304 53.0715C132.936 53.2091 132.544 53.2728 132.151 53.2589C131.758 53.2449 131.372 53.1537 131.014 52.9904C130.657 52.827 130.335 52.5948 130.067 52.307L92.141 11.402C91.6019 10.8161 91.3154 10.0414 91.3435 9.2457C91.3715 8.45002 91.712 7.69744 92.291 7.15099L98.807 1.05199C99.094 0.783582 99.4312 0.574492 99.7993 0.436717C100.167 0.298943 100.559 0.235195 100.952 0.249131C101.344 0.263068 101.73 0.354414 102.088 0.51793C102.445 0.681445 102.767 0.913911 103.034 1.20199L140.96 42.119Z" fill="#D25B5B"/>
</svg>
