<?xml version="1.0" encoding="UTF-8" standalone="no"?>
<!DOCTYPE svg PUBLIC "-//W3C//DTD SVG 1.1//EN"
 "http://www.w3.org/Graphics/SVG/1.1/DTD/svg11.dtd">
<!-- Generated by graphviz version 2.47.0 (20210316.0004)
 -->
<!-- Title: dependencies Pages: 1 -->
<svg width="504pt" height="284pt"
 viewBox="0.00 0.00 504.00 284.00" xmlns="http://www.w3.org/2000/svg" xmlns:xlink="http://www.w3.org/1999/xlink">
<g id="graph0" class="graph" transform="scale(1 1) rotate(0) translate(4 280)">
<title>dependencies</title>
<polygon fill="white" stroke="transparent" points="-4,4 -4,-280 500,-280 500,4 -4,4"/>
<text text-anchor="start" x="227.01" y="-42.4" font-family="Times-12" font-weight="bold" font-size="14.00">Legend</text>
<polygon fill="#ffffb3" stroke="transparent" points="14,-10 14,-30 34,-30 34,-10 14,-10"/>
<text text-anchor="start" x="37.63" y="-15.4" font-family="Times-12" font-size="14.00"> &#160;Declarations</text>
<polygon fill="#8dd3c7" stroke="transparent" points="127,-10 127,-30 147,-30 147,-10 127,-10"/>
<text text-anchor="start" x="150.73" y="-15.4" font-family="Times-12" font-size="14.00"> &#160;Module</text>
<polygon fill="#80b1d3" stroke="transparent" points="213,-10 213,-30 233,-30 233,-10 213,-10"/>
<text text-anchor="start" x="236.78" y="-15.4" font-family="Times-12" font-size="14.00"> &#160;Bootstrap</text>
<polygon fill="#fdb462" stroke="transparent" points="310,-10 310,-30 330,-30 330,-10 310,-10"/>
<text text-anchor="start" x="333.67" y="-15.4" font-family="Times-12" font-size="14.00"> &#160;Providers</text>
<polygon fill="#fb8072" stroke="transparent" points="406,-10 406,-30 426,-30 426,-10 406,-10"/>
<text text-anchor="start" x="429.73" y="-15.4" font-family="Times-12" font-size="14.00"> &#160;Exports</text>
<g id="clust1" class="cluster">
<title>cluster_ActivitiesModule</title>
<polygon fill="none" stroke="black" stroke-dasharray="1,5" points="71,-70 71,-268 425,-268 425,-70 71,-70"/>
</g>
<g id="clust2" class="cluster">
<title>cluster_ActivitiesModule_declarations</title>
<polygon fill="none" stroke="black" points="265,-78 265,-130 417,-130 417,-78 265,-78"/>
</g>
<g id="clust5" class="cluster">
<title>cluster_ActivitiesModule_exports</title>
<polygon fill="none" stroke="black" points="175,-208 175,-260 331,-260 331,-208 175,-208"/>
</g>
<g id="clust7" class="cluster">
<title>cluster_ActivitiesModule_providers</title>
<polygon fill="none" stroke="black" points="79,-78 79,-130 257,-130 257,-78 79,-78"/>
</g>
<!-- ActivitiesComponent -->
<g id="node1" class="node">
<title>ActivitiesComponent</title>
<polygon fill="#ffffb3" stroke="black" points="408.77,-122 273.23,-122 273.23,-86 408.77,-86 408.77,-122"/>
<text text-anchor="middle" x="341" y="-99.8" font-family="Times,serif" font-size="14.00">ActivitiesComponent</text>
</g>
<!-- ActivitiesModule -->
<g id="node2" class="node">
<title>ActivitiesModule</title>
<polygon fill="#8dd3c7" stroke="black" points="309.98,-187 306.98,-191 285.98,-191 282.98,-187 196.02,-187 196.02,-151 309.98,-151 309.98,-187"/>
<text text-anchor="middle" x="253" y="-164.8" font-family="Times,serif" font-size="14.00">ActivitiesModule</text>
</g>
<!-- ActivitiesComponent&#45;&gt;ActivitiesModule -->
<g id="edge1" class="edge">
<title>ActivitiesComponent&#45;&gt;ActivitiesModule</title>
<path fill="none" stroke="black" d="M291.55,-122.11C291.55,-122.11 291.55,-140.99 291.55,-140.99"/>
<polygon fill="black" stroke="black" points="288.05,-140.99 291.55,-150.99 295.05,-140.99 288.05,-140.99"/>
</g>
<!-- ActivitiesComponent  -->
<g id="node3" class="node">
<title>ActivitiesComponent </title>
<polygon fill="#fb8072" stroke="black" points="322.77,-252 183.23,-252 183.23,-216 322.77,-216 322.77,-252"/>
<text text-anchor="middle" x="253" y="-229.8" font-family="Times,serif" font-size="14.00">ActivitiesComponent </text>
</g>
<!-- ActivitiesModule&#45;&gt;ActivitiesComponent  -->
<g id="edge2" class="edge">
<title>ActivitiesModule&#45;&gt;ActivitiesComponent </title>
<path fill="none" stroke="black" stroke-dasharray="5,2" d="M253,-187.11C253,-187.11 253,-205.99 253,-205.99"/>
<polygon fill="black" stroke="black" points="249.5,-205.99 253,-215.99 256.5,-205.99 249.5,-205.99"/>
</g>
<!-- GlobalApiService -->
<g id="node4" class="node">
<title>GlobalApiService</title>
<ellipse fill="#fdb462" stroke="black" cx="168" cy="-104" rx="80.52" ry="18"/>
<text text-anchor="middle" x="168" y="-99.8" font-family="Times,serif" font-size="14.00">GlobalApiService</text>
</g>
<!-- GlobalApiService&#45;&gt;ActivitiesModule -->
<g id="edge3" class="edge">
<title>GlobalApiService&#45;&gt;ActivitiesModule</title>
<path fill="none" stroke="black" d="M222.38,-117.47C222.38,-117.47 222.38,-140.86 222.38,-140.86"/>
<polygon fill="black" stroke="black" points="218.88,-140.86 222.38,-150.86 225.88,-140.86 218.88,-140.86"/>
</g>
</g>
</svg>
